<svg width="261" height="20" viewBox="0 0 261 20" fill="none" xmlns="http://www.w3.org/2000/svg">
<path d="M0.989064 16.9999C0.915731 16.9999 0.879065 16.9633 0.879067 16.8899L0.923477 1.77594C0.923479 1.71727 0.952813 1.68794 1.01148 1.68794L5.12548 1.66594C5.93215 1.65127 6.66548 1.84194 7.32546 2.23794C8.00012 2.63394 8.53544 3.16927 8.93142 3.84394C9.3274 4.50394 9.52538 5.23727 9.52536 6.04394L9.52519 12.3579C9.52517 13.2086 9.31981 13.9859 8.90913 14.6899C8.49844 15.3793 7.94843 15.9293 7.25908 16.3399C6.56974 16.7506 5.7924 16.9633 4.92706 16.9779L0.989064 16.9999ZM3.56314 14.2939H4.92714C5.4698 14.2939 5.92448 14.1033 6.29115 13.7219C6.6725 13.3406 6.86318 12.8859 6.86319 12.3579L6.86336 6.02194C6.86337 5.55261 6.68739 5.14927 6.33539 4.81194C5.99807 4.45994 5.59474 4.29127 5.12541 4.30594L3.58541 4.32794L3.56314 14.2939ZM15.4489 17.2199C14.6569 17.2199 13.9309 17.0219 13.2709 16.6259C12.6256 16.2153 12.1049 15.6799 11.709 15.0199C11.313 14.3453 11.115 13.6046 11.115 12.7979L11.1372 5.82394C11.1372 5.01727 11.3279 4.28394 11.7093 3.62394C12.1053 2.96394 12.6333 2.43594 13.2933 2.03994C13.9533 1.64394 14.672 1.44594 15.4493 1.44594C16.2413 1.44594 16.96 1.64394 17.6053 2.03994C18.2506 2.43594 18.764 2.96394 19.1453 3.62394C19.5413 4.28394 19.7392 5.01727 19.7392 5.82394L19.761 12.7979C19.761 13.6046 19.563 14.3453 19.167 15.0199C18.7856 15.6799 18.2649 16.2153 17.6049 16.6259C16.9596 17.0219 16.2409 17.2199 15.4489 17.2199ZM15.449 14.5579C15.889 14.5579 16.2703 14.3819 16.593 14.0299C16.9303 13.6633 17.099 13.2526 17.099 12.7979L17.0772 5.82394C17.0772 5.33994 16.9232 4.92927 16.6152 4.59194C16.3073 4.25461 15.9186 4.08594 15.4493 4.08594C14.9946 4.08594 14.6059 4.25461 14.2832 4.59194C13.9606 4.9146 13.7992 5.32527 13.7992 5.82394L13.799 12.7979C13.799 13.2819 13.9603 13.6999 14.283 14.0519C14.6056 14.3893 14.9943 14.5579 15.449 14.5579ZM26.1416 17.2199C25.3349 17.2199 24.6016 17.0219 23.9416 16.6259C23.2963 16.2153 22.783 15.6726 22.4016 14.9979C22.0203 14.3233 21.8297 13.5679 21.8297 12.7319L21.8519 5.86794C21.8519 5.06127 22.0353 4.32794 22.402 3.66794C22.7833 2.99327 23.2967 2.45794 23.942 2.06194C24.602 1.65127 25.3353 1.44594 26.142 1.44594C26.9487 1.44594 27.6747 1.64394 28.32 2.03994C28.9653 2.43594 29.4786 2.97127 29.86 3.64594C30.2413 4.30594 30.4319 5.0466 30.4319 5.86794L30.4319 6.87994C30.4319 6.93861 30.4025 6.96794 30.3439 6.96794H27.8799C27.8212 6.96794 27.7919 6.93861 27.7919 6.87994L27.7919 5.86794C27.7919 5.38394 27.6306 4.96594 27.3079 4.61394C26.9999 4.26194 26.6113 4.08594 26.1419 4.08594C25.6139 4.08594 25.2106 4.26927 24.9319 4.63594C24.6533 4.98794 24.5139 5.3986 24.5139 5.86794L24.5137 12.7319C24.5137 13.2746 24.6677 13.7146 24.9757 14.0519C25.2983 14.3893 25.687 14.5579 26.1417 14.5579C26.611 14.5579 26.9997 14.3746 27.3077 14.0079C27.6304 13.6266 27.7917 13.2013 27.7917 12.7319L27.7917 11.7199C27.7917 11.6613 27.8211 11.6319 27.8797 11.6319H30.3657C30.4244 11.6319 30.4537 11.6613 30.4537 11.7199L30.4537 12.7319C30.4537 13.5679 30.2557 14.3233 29.8596 14.9979C29.4783 15.6726 28.9649 16.2153 28.3196 16.6259C27.6743 17.0219 26.9483 17.2199 26.1416 17.2199ZM36.8992 17.2199C36.1219 17.2199 35.4032 17.0219 34.7433 16.6259C34.0833 16.2153 33.5553 15.6726 33.1593 14.9979C32.778 14.3233 32.5873 13.5826 32.5874 12.7759L32.6317 1.77594C32.6317 1.71727 32.661 1.68794 32.7197 1.68794H35.1837C35.2423 1.68794 35.2717 1.71727 35.2717 1.77594L35.2714 12.7759C35.2714 13.2746 35.4253 13.6999 35.7333 14.0519C36.056 14.3893 36.4446 14.5579 36.8993 14.5579C37.3686 14.5579 37.7573 14.3893 38.0653 14.0519C38.388 13.6999 38.5494 13.2746 38.5494 12.7759L38.5497 1.77594C38.5497 1.71727 38.579 1.68794 38.6377 1.68794H41.1017C41.1603 1.68794 41.1897 1.71727 41.1897 1.77594L41.2334 12.7759C41.2333 13.5973 41.0353 14.3453 40.6393 15.0199C40.258 15.6946 39.7373 16.2299 39.0773 16.6259C38.4319 17.0219 37.7059 17.2199 36.8992 17.2199ZM43.7184 16.9999C43.6597 16.9999 43.6304 16.9633 43.6304 16.8899L43.6748 1.77594C43.6748 1.71727 43.7041 1.68794 43.7628 1.68794H46.4468C46.5055 1.68794 46.5568 1.71727 46.6008 1.77594L48.6027 4.67994L50.6048 1.77594C50.6488 1.71727 50.7001 1.68794 50.7588 1.68794H53.4648C53.5235 1.68794 53.5528 1.71727 53.5528 1.77594L53.5964 16.8899C53.5964 16.9633 53.5671 16.9999 53.5084 16.9999H51.0224C50.9637 16.9999 50.9344 16.9633 50.9344 16.8899L50.9127 5.66994L48.6026 9.01394L46.3147 5.66994L46.2924 16.8899C46.2924 16.9633 46.2631 16.9999 46.2044 16.9999H43.7184ZM56.1948 16.9999C56.1361 16.9999 56.1068 16.9633 56.1068 16.8899L56.1292 1.77594C56.1292 1.71727 56.1585 1.68794 56.2172 1.68794H63.2792C63.3379 1.68794 63.3672 1.7246 63.3672 1.79794L63.3671 4.26194C63.3671 4.3206 63.3378 4.34994 63.2791 4.34994H58.7691L58.769 7.78194H63.279C63.3377 7.78194 63.367 7.81127 63.367 7.86994L63.389 10.3559C63.389 10.4146 63.3596 10.4439 63.301 10.4439H58.769L58.7689 14.2939H63.3009C63.3595 14.2939 63.3889 14.3306 63.3889 14.4039L63.3888 16.9119C63.3888 16.9706 63.3595 16.9999 63.3008 16.9999H56.1948ZM66.2031 16.9999C66.0857 16.9999 66.0271 16.9486 66.0271 16.8459L66.0055 1.86394C66.0055 1.7466 66.0642 1.68794 66.1815 1.68794H68.1615L71.8793 10.3559L71.7695 1.86394C71.7695 1.7466 71.8355 1.68794 71.9675 1.68794H74.1455C74.2335 1.68794 74.2775 1.7466 74.2775 1.86394L74.2991 16.8679C74.2991 16.9559 74.2624 16.9999 74.1891 16.9999H72.2531L68.4473 8.90394L68.6011 16.8239C68.6011 16.9413 68.5351 16.9999 68.4031 16.9999H66.2031ZM79.0702 16.9999C79.0115 16.9999 78.9822 16.9633 78.9822 16.8899L78.9825 4.34994H76.1225C76.0492 4.34994 76.0125 4.31327 76.0125 4.23994L76.0346 1.77594C76.0346 1.71727 76.0639 1.68794 76.1226 1.68794H84.4826C84.5559 1.68794 84.5926 1.71727 84.5926 1.77594L84.5925 4.23994C84.5925 4.31327 84.5632 4.34994 84.5045 4.34994H81.6225L81.6442 16.8899C81.6442 16.9633 81.6148 16.9999 81.5562 16.9999H79.0702ZM84.7958 16.8899L87.5242 1.77594C87.5389 1.71727 87.5756 1.68794 87.6342 1.68794H90.8242C90.8829 1.68794 90.9196 1.71727 90.9342 1.77594L93.5518 16.8899C93.5665 16.9633 93.5372 16.9999 93.4638 16.9999H91.0218C90.9632 16.9999 90.9265 16.9633 90.9118 16.8899L90.6699 15.2839H87.6779L87.4358 16.8899C87.4212 16.9633 87.3845 16.9999 87.3258 16.9999H84.8838C84.8252 16.9999 84.7958 16.9633 84.7958 16.8899ZM88.1179 12.9299H90.2299L89.3281 6.74794L89.1961 5.93394L89.1081 6.74794L88.1179 12.9299ZM96.7398 16.9999C96.6811 16.9999 96.6518 16.9633 96.6518 16.8899L96.6521 4.34994H93.7921C93.7188 4.34994 93.6821 4.31327 93.6821 4.23994L93.7042 1.77594C93.7042 1.71727 93.7335 1.68794 93.7922 1.68794H102.152C102.226 1.68794 102.262 1.71727 102.262 1.77594L102.262 4.23994C102.262 4.31327 102.233 4.34994 102.174 4.34994H99.2921L99.3138 16.8899C99.3138 16.9633 99.2844 16.9999 99.2258 16.9999H96.7398ZM104.118 16.9999C104.045 16.9999 104.008 16.9633 104.008 16.8899L104.031 1.77594C104.031 1.71727 104.06 1.68794 104.119 1.68794H106.583C106.641 1.68794 106.671 1.71727 106.671 1.77594L106.692 16.8899C106.692 16.9633 106.663 16.9999 106.604 16.9999H104.118ZM113.357 17.2199C112.565 17.2199 111.839 17.0219 111.18 16.6259C110.534 16.2153 110.014 15.6799 109.618 15.0199C109.222 14.3453 109.024 13.6046 109.024 12.7979L109.046 5.82394C109.046 5.01727 109.237 4.28394 109.618 3.62394C110.014 2.96394 110.542 2.43594 111.202 2.03994C111.862 1.64394 112.581 1.44594 113.358 1.44594C114.15 1.44594 114.869 1.64394 115.514 2.03994C116.159 2.43594 116.673 2.96394 117.054 3.62394C117.45 4.28394 117.648 5.01727 117.648 5.82394L117.67 12.7979C117.67 13.6046 117.472 14.3453 117.076 15.0199C116.694 15.6799 116.174 16.2153 115.514 16.6259C114.868 17.0219 114.149 17.2199 113.357 17.2199ZM113.358 14.5579C113.798 14.5579 114.179 14.3819 114.502 14.0299C114.839 13.6633 115.008 13.2526 115.008 12.7979L114.986 5.82394C114.986 5.33994 114.832 4.92927 114.524 4.59194C114.216 4.25461 113.827 4.08594 113.358 4.08594C112.903 4.08594 112.515 4.25461 112.192 4.59194C111.869 4.9146 111.708 5.32527 111.708 5.82394L111.708 12.7979C111.708 13.2819 111.869 13.6999 112.192 14.0519C112.514 14.3893 112.903 14.5579 113.358 14.5579ZM120.2 16.9999C120.083 16.9999 120.024 16.9486 120.024 16.8459L120.003 1.86394C120.003 1.7466 120.061 1.68794 120.179 1.68794H122.159L125.876 10.3559L125.767 1.86394C125.767 1.7466 125.833 1.68794 125.965 1.68794H128.143C128.231 1.68794 128.275 1.7466 128.275 1.86394L128.296 16.8679C128.296 16.9559 128.26 16.9999 128.186 16.9999H126.25L122.444 8.90394L122.598 16.8239C122.598 16.9413 122.532 16.9999 122.4 16.9999H120.2Z" fill="black"/>
<path d="M140.769 16.9999C140.696 16.9999 140.666 16.9633 140.681 16.8899L143.409 1.77594C143.424 1.71727 143.461 1.68794 143.519 1.68794H145.807C145.881 1.68794 145.91 1.71727 145.895 1.77594L143.123 16.8899C143.108 16.9633 143.072 16.9999 143.013 16.9999H140.769Z" fill="black"/>
<path d="M160.903 16.9999C160.844 16.9999 160.808 16.9633 160.793 16.8899L158.197 1.77594C158.183 1.71727 158.205 1.68794 158.263 1.68794H160.727C160.786 1.68794 160.823 1.71727 160.837 1.77594L162.245 11.7199L163.697 1.77594C163.712 1.71727 163.756 1.68794 163.829 1.68794H165.809C165.868 1.68794 165.905 1.71727 165.919 1.77594L167.349 11.7199L168.779 1.77594C168.794 1.71727 168.831 1.68794 168.889 1.68794H171.331C171.405 1.68794 171.434 1.71727 171.419 1.77594L168.801 16.8899C168.786 16.9193 168.764 16.9486 168.735 16.9779C168.706 16.9926 168.691 16.9999 168.691 16.9999H166.029C165.985 16.9999 165.948 16.9633 165.919 16.8899L164.797 8.99194L163.675 16.8899C163.66 16.9633 163.624 16.9999 163.565 16.9999H160.903ZM173.463 16.9999C173.404 16.9999 173.375 16.9633 173.375 16.8899L173.397 1.77594C173.397 1.71727 173.434 1.68794 173.507 1.68794H175.949C176.023 1.68794 176.059 1.71727 176.059 1.77594L176.037 7.75994H179.337L179.337 1.77594C179.337 1.71727 179.367 1.68794 179.425 1.68794H181.867C181.941 1.68794 181.977 1.71727 181.977 1.77594L182.021 16.8899C182.021 16.9633 181.984 16.9999 181.911 16.9999H179.447C179.374 16.9999 179.337 16.9633 179.337 16.8899L179.337 10.4219H176.037L176.037 16.8899C176.037 16.9633 176.008 16.9999 175.949 16.9999H173.463ZM188.546 17.2199C187.754 17.2199 187.028 17.0219 186.368 16.6259C185.723 16.2153 185.202 15.6799 184.806 15.0199C184.41 14.3453 184.212 13.6046 184.213 12.7979L184.235 5.82394C184.235 5.01727 184.425 4.28394 184.807 3.62394C185.203 2.96394 185.731 2.43594 186.391 2.03994C187.051 1.64394 187.769 1.44594 188.547 1.44594C189.339 1.44594 190.057 1.64394 190.703 2.03994C191.348 2.43594 191.861 2.96394 192.243 3.62394C192.639 4.28394 192.837 5.01727 192.837 5.82394L192.859 12.7979C192.858 13.6046 192.66 14.3453 192.264 15.0199C191.883 15.6799 191.362 16.2153 190.702 16.6259C190.057 17.0219 189.338 17.2199 188.546 17.2199ZM188.546 14.5579C188.986 14.5579 189.368 14.3819 189.69 14.0299C190.028 13.6633 190.197 13.2526 190.197 12.7979L190.175 5.82394C190.175 5.33994 190.021 4.92927 189.713 4.59194C189.405 4.25461 189.016 4.08594 188.547 4.08594C188.092 4.08594 187.703 4.25461 187.381 4.59194C187.058 4.9146 186.897 5.32527 186.897 5.82394L186.897 12.7979C186.897 13.2819 187.058 13.6999 187.38 14.0519C187.703 14.3893 188.092 14.5579 188.546 14.5579ZM195.345 6.85794C195.287 6.85794 195.257 6.82127 195.257 6.74794L195.61 1.77594C195.624 1.71727 195.661 1.68794 195.72 1.68794H197.898C197.971 1.68794 198 1.71727 197.986 1.77594L197.567 6.79194C197.567 6.83594 197.545 6.85794 197.501 6.85794H195.345ZM204.253 17.2199C203.461 17.2199 202.735 17.0219 202.075 16.6259C201.43 16.2153 200.909 15.6799 200.513 15.0199C200.132 14.3453 199.941 13.6046 199.941 12.7979L199.941 11.7859C199.941 11.7126 199.978 11.6759 200.051 11.6759H202.515C202.574 11.6759 202.603 11.7126 202.603 11.7859L202.603 12.7979C202.603 13.2819 202.765 13.6999 203.087 14.0519C203.41 14.3893 203.799 14.5579 204.253 14.5579C204.708 14.5579 205.097 14.3819 205.419 14.0299C205.742 13.6779 205.903 13.2673 205.903 12.7979C205.903 12.2553 205.551 11.7859 204.847 11.3899C204.613 11.2579 204.246 11.0526 203.747 10.7739C203.249 10.4953 202.779 10.2313 202.339 9.98194C201.533 9.51261 200.931 8.92594 200.535 8.22194C200.154 7.50327 199.963 6.69661 199.964 5.80194C199.964 4.98061 200.162 4.24727 200.558 3.60194C200.954 2.94194 201.474 2.42127 202.12 2.03994C202.78 1.65861 203.491 1.46794 204.254 1.46794C205.031 1.46794 205.742 1.66594 206.388 2.06194C207.048 2.44327 207.568 2.96394 207.95 3.62394C208.346 4.26927 208.544 4.99527 208.544 5.80194L208.543 7.60594C208.543 7.66461 208.514 7.69394 208.455 7.69394H205.991C205.933 7.69394 205.903 7.66461 205.903 7.60594L205.882 5.80194C205.882 5.28861 205.72 4.8706 205.398 4.54794C205.075 4.22527 204.694 4.06394 204.254 4.06394C203.799 4.06394 203.41 4.23994 203.088 4.59194C202.765 4.92927 202.604 5.33261 202.604 5.80194C202.603 6.28594 202.706 6.68927 202.911 7.01194C203.117 7.33461 203.491 7.64261 204.033 7.93594C204.107 7.97994 204.246 8.06061 204.451 8.17794C204.671 8.28061 204.906 8.40527 205.155 8.55194C205.405 8.68394 205.625 8.80127 205.815 8.90394C206.021 9.0066 206.145 9.0726 206.189 9.10194C206.923 9.5126 207.502 10.0186 207.927 10.6199C208.353 11.2066 208.565 11.9326 208.565 12.7979C208.565 13.6339 208.367 14.3893 207.971 15.0639C207.59 15.7239 207.069 16.2519 206.409 16.6479C205.764 17.0293 205.045 17.2199 204.253 17.2199ZM218.729 17.2199C217.952 17.2199 217.233 17.0219 216.573 16.6259C215.913 16.2153 215.385 15.6726 214.989 14.9979C214.608 14.3233 214.417 13.5826 214.417 12.7759L214.461 1.77594C214.461 1.71727 214.491 1.68794 214.549 1.68794H217.013C217.072 1.68794 217.101 1.71727 217.101 1.77594L217.101 12.7759C217.101 13.2746 217.255 13.6999 217.563 14.0519C217.886 14.3893 218.274 14.5579 218.729 14.5579C219.198 14.5579 219.587 14.3893 219.895 14.0519C220.218 13.6999 220.379 13.2746 220.379 12.7759L220.379 1.77594C220.379 1.71727 220.409 1.68794 220.467 1.68794H222.931C222.99 1.68794 223.019 1.71727 223.019 1.77594L223.063 12.7759C223.063 13.5973 222.865 14.3453 222.469 15.0199C222.088 15.6946 221.567 16.2299 220.907 16.6259C220.262 17.0219 219.536 17.2199 218.729 17.2199ZM229.2 17.2199C228.408 17.2199 227.682 17.0219 227.022 16.6259C226.377 16.2153 225.856 15.6799 225.46 15.0199C225.079 14.3453 224.888 13.6046 224.888 12.7979L224.888 11.7859C224.888 11.7126 224.925 11.6759 224.998 11.6759H227.462C227.521 11.6759 227.55 11.7126 227.55 11.7859L227.55 12.7979C227.55 13.2819 227.711 13.6999 228.034 14.0519C228.357 14.3893 228.745 14.5579 229.2 14.5579C229.655 14.5579 230.043 14.3819 230.366 14.0299C230.689 13.6779 230.85 13.2673 230.85 12.7979C230.85 12.2553 230.498 11.7859 229.794 11.3899C229.559 11.2579 229.193 11.0526 228.694 10.7739C228.196 10.4953 227.726 10.2313 227.286 9.98194C226.48 9.51261 225.878 8.92594 225.482 8.22194C225.101 7.50327 224.91 6.69661 224.91 5.80194C224.91 4.98061 225.108 4.24727 225.504 3.60194C225.9 2.94194 226.421 2.42127 227.066 2.03994C227.726 1.65861 228.438 1.46794 229.2 1.46794C229.978 1.46794 230.689 1.66594 231.334 2.06194C231.994 2.44327 232.515 2.96394 232.896 3.62394C233.292 4.26927 233.49 4.99527 233.49 5.80194L233.49 7.60594C233.49 7.66461 233.461 7.69394 233.402 7.69394H230.938C230.88 7.69394 230.85 7.66461 230.85 7.60594L230.828 5.80194C230.828 5.28861 230.667 4.8706 230.344 4.54794C230.022 4.22527 229.64 4.06394 229.2 4.06394C228.746 4.06394 228.357 4.23994 228.034 4.59194C227.712 4.92927 227.55 5.33261 227.55 5.80194C227.55 6.28594 227.653 6.68927 227.858 7.01194C228.064 7.33461 228.438 7.64261 228.98 7.93594C229.054 7.97994 229.193 8.06061 229.398 8.17794C229.618 8.28061 229.853 8.40527 230.102 8.55194C230.352 8.68394 230.572 8.80127 230.762 8.90394C230.968 9.0066 231.092 9.0726 231.136 9.10194C231.87 9.5126 232.449 10.0186 232.874 10.6199C233.299 11.2066 233.512 11.9326 233.512 12.7979C233.512 13.6339 233.314 14.3893 232.918 15.0639C232.537 15.7239 232.016 16.2519 231.356 16.6479C230.711 17.0293 229.992 17.2199 229.2 17.2199ZM235.812 16.9999C235.739 16.9999 235.702 16.9633 235.702 16.8899L235.724 1.77594C235.724 1.71727 235.754 1.68794 235.812 1.68794H238.276C238.335 1.68794 238.364 1.71727 238.364 1.77594L238.386 16.8899C238.386 16.9633 238.357 16.9999 238.298 16.9999H235.812ZM241.179 16.9999C241.062 16.9999 241.003 16.9486 241.003 16.8459L240.982 1.86394C240.982 1.7466 241.04 1.68794 241.158 1.68794H243.138L246.855 10.3559L246.746 1.86394C246.746 1.7466 246.812 1.68794 246.944 1.68794H249.122C249.21 1.68794 249.254 1.7466 249.254 1.86394L249.275 16.8679C249.275 16.9559 249.239 16.9999 249.165 16.9999H247.229L243.423 8.90394L243.577 16.8239C243.577 16.9413 243.511 16.9999 243.379 16.9999H241.179ZM255.872 17.2199C255.08 17.2199 254.362 17.0219 253.716 16.6259C253.071 16.2299 252.55 15.7019 252.154 15.0419C251.773 14.3673 251.582 13.6193 251.582 12.7979L251.583 5.82394C251.583 5.03194 251.773 4.30594 252.155 3.64594C252.551 2.97127 253.071 2.43594 253.717 2.03994C254.377 1.64394 255.095 1.44594 255.873 1.44594C256.679 1.44594 257.405 1.64394 258.051 2.03994C258.711 2.42127 259.231 2.94194 259.613 3.60194C259.994 4.26194 260.185 5.00261 260.185 5.82394L260.185 6.83594C260.185 6.89461 260.148 6.92394 260.075 6.92394H257.611C257.552 6.92394 257.523 6.89461 257.523 6.83594L257.523 5.99994C257.523 5.4426 257.361 4.9806 257.039 4.61394C256.731 4.24727 256.342 4.06394 255.873 4.06394C255.447 4.06394 255.066 4.23994 254.729 4.59194C254.406 4.94394 254.245 5.35461 254.245 5.82394L254.244 12.7979C254.244 13.2819 254.406 13.6999 254.728 14.0519C255.051 14.3893 255.432 14.5579 255.872 14.5579C256.342 14.5579 256.73 14.3893 257.038 14.0519C257.361 13.7146 257.522 13.2966 257.522 12.7979L257.522 11.7199H255.982C255.909 11.7199 255.872 11.6833 255.872 11.6099L255.872 9.14594C255.872 9.07261 255.909 9.03594 255.982 9.03594H260.096C260.155 9.03594 260.184 9.07261 260.184 9.14594L260.184 12.7979C260.184 13.6193 259.986 14.3673 259.59 15.0419C259.209 15.7019 258.696 16.2299 258.05 16.6259C257.405 17.0219 256.679 17.2199 255.872 17.2199Z" fill="black"/>
</svg>
